PathFileType	4	(X/Y/Z)	walk-thru1-5-TP.trc
DataRate	CameraRate	NumFrames	NumMarkers	Units	OrigDataRate	OrigDataStartFrame	OrigNumFrames
120.00	120.00	       5	60	mm	120.00	125	       498
Frame#	Time	Top.Head			Front.Head			Rear.Head			Jaw			C7			R.Clavicle			L.Clavicle			R.Shoulder			L.Shoulder			R.Scapula			L.Scapula			R.Scap.Inf			R.Biceps.Lateral			R.Elbow			R.Elbow.Medial			R.Forearm			R.Ulna			R.Radius			R.Wrist			R.Thumb.M1			R.Thumb.M2			R.Thumb.M3			R.Finger3.M1			R.Finger3.M2			R.Finger3.M3			L.Biceps.Lateral			L.Elbow			L.Elbow.Medial			L.Forearm			L.Ulna			L.Radius			L.Wrist			L.Thumb.M1			L.Thumb.M2			L.Thumb.M3			L.Finger3.M1			L.Finger3.M2			L.Finger3.M3			V.Sacral			R.ASIS			L.ASIS			R.Thigh			R.Thigh.Front			R.Knee			R.Knee.Medial			R.Shank			R.Ankle			R.Ankle.Medial			R.Heel			R.Toe			R.MedFoot			L.Thigh			L.Knee			L.Knee.Medial			L.Shank			L.Ankle			L.Ankle.Medial			L.Heel			L.Toe			L.MedFoot			V_mid_ASIS			V_R_Knee_JC			V_L_Knee_JC			V_R_Elbow_JC			V_L_Elbow_JC			V_R_Ankle_JC			V_L_Ankle_JC			V_R_Wrist_JC			V_L_Wrist_JC			V_R_ScaTrpz_1stMC_JC			V_R_1stMC_1stPP_JC			V_R_1stPP_1stDP_JC			V_R_LunCap_3rdMC_JC			V_R_3rdMC_3rdPP_JC			V_R_3rdPP_3rdMP_JC			V_R_3rdMP_3rdDP_JC			V_L_ScaTrpz_1stMC_JC			V_L_1stMC_1stPP_JC			V_L_1stPP_1stDP_JC			V_L_LunCap_3rdMC_JC			V_L_3rdMC_3rdPP_JC			V_L_3rdPP_3rdMP_JC			V_L_3rdMP_3rdPP_JC			V_ROOT_JC			V_R_Hip_JC			V_L_Hip_JC			V_R_GlenHum_JC			V_L_GlenHum_JC			V_ForeHead_Ctr			V_Vertex			V_Sagit_Lambdoid_Suture			V_R_FrontoTemp			V_L_FrontoTemporal			V_R_ParietalOccip			V_L_ParietalOcciptal			V_R_Temporal			V_L_Temporal			V_mid_FrontRearHead			V_mid_RLGlenHumCtrs			V_C7_vert			V_C1_vert			V_Mid_Hip			
		X1	Y1	Z1	X2	Y2	Z2	X3	Y3	Z3	X4	Y4	Z4	X5	Y5	Z5	X6	Y6	Z6	X7	Y7	Z7	X8	Y8	Z8	X9	Y9	Z9	X10	Y10	Z10	X11	Y11	Z11	X12	Y12	Z12	X13	Y13	Z13	X14	Y14	Z14	X15	Y15	Z15	X16	Y16	Z16	X17	Y17	Z17	X18	Y18	Z18	X19	Y19	Z19	X20	Y20	Z20	X21	Y21	Z21	X22	Y22	Z22	X23	Y23	Z23	X24	Y24	Z24	X25	Y25	Z25	X26	Y26	Z26	X27	Y27	Z27	X28	Y28	Z28	X29	Y29	Z29	X30	Y30	Z30	X31	Y31	Z31	X32	Y32	Z32	X33	Y33	Z33	X34	Y34	Z34	X35	Y35	Z35	X36	Y36	Z36	X37	Y37	Z37	X38	Y38	Z38	X39	Y39	Z39	X40	Y40	Z40	X41	Y41	Z41	X42	Y42	Z42	X43	Y43	Z43	X44	Y44	Z44	X45	Y45	Z45	X46	Y46	Z46	X47	Y47	Z47	X48	Y48	Z48	X49	Y49	Z49	X50	Y50	Z50	X51	Y51	Z51	X52	Y52	Z52	X53	Y53	Z53	X54	Y54	Z54	X55	Y55	Z55	X56	Y56	Z56	X57	Y57	Z57	X58	Y58	Z58	X59	Y59	Z59	X60	Y60	Z60	

125	1.033	423.28885	0.62863	1742.54248	341.50211	20.53711	1609.50562	563.19489	-12.84624	1686.32727	450.69351	10.54121	1448.22253	671.50171	-7.95722	1560.58472	583.00482	118.49524	1481.55945	562.87012	-124.14109	1464.59326	643.24866	219.95409	1477.40125	604.29803	-231.78975	1465.86340	746.21027	85.59462	1473.90454	738.93463	-105.31843	1464.59265	778.75848	88.18273	1384.28271	686.02869	253.64191	1339.59155	753.49597	281.96619	1158.54224	749.33734	185.30478	1148.77246	654.07935	279.94891	1095.29504	707.50775	288.25388	959.97028	593.44696	280.61853	932.95331	591.94165	327.87885	906.26849	573.56360	276.53052	887.01648	570.81335	248.13535	835.82935	580.50439	245.82472	788.50153	577.14148	342.79816	823.04053	615.28534	298.99072	766.12225	634.06024	254.08052	808.42310	666.26306	-262.86444	1324.18054	740.57910	-282.80582	1160.91528	752.54016	-189.13292	1132.29907	658.88934	-286.33484	1075.74609	724.65118	-313.73843	974.88037	629.53003	-300.70844	915.53406	654.46295	-341.41968	884.21613	605.57446	-306.27219	860.05652	586.97028	-283.71219	813.24701	580.01813	-289.60849	764.95947	633.36682	-361.42941	787.45111	628.90009	-332.34882	727.44946	627.61102	-273.31610	725.34857	800.33075	-1.25363	1109.44800	611.46808	192.72226	1048.38965	605.83295	-158.66927	1049.50012	558.14124	188.49861	683.93219	460.31628	98.83232	605.33087	493.10825	163.47739	538.17474	506.37680	50.76563	531.97516	467.98782	126.19230	321.19870	543.67212	170.54810	88.46976	526.46576	66.19823	107.74228	604.10632	122.42522	50.00398	371.06982	134.97708	46.53938	431.40637	97.11573	82.85197	671.12018	-164.80931	662.59906	692.04694	-154.13928	511.43115	709.59924	-41.37140	494.49011	784.95239	-116.31697	317.15756	987.18439	-133.15665	143.59276	929.46149	-43.58482	147.73364	1034.14099	-61.60781	127.90862	839.55878	-127.45964	40.48040	874.67780	-85.74577	99.88120																																																																																																																															
126	1.042	417.58914	2.90505	1744.01465	335.30560	22.43121	1610.91663	557.89978	-11.30360	1687.30725	442.51526	12.06315	1449.67188	665.07416	-6.51163	1562.26172	576.09082	120.45954	1483.74182	557.00256	-121.81381	1465.62610	635.90521	223.02223	1478.00793	599.17529	-229.07658	1466.63708	739.58270	87.50648	1475.19543	733.27484	-102.91241	1466.49939	771.21509	90.62161	1385.32312	678.38489	255.65593	1340.95251	746.46735	285.64313	1160.19336	741.99878	187.62090	1149.79163	647.70398	283.62430	1097.51343	701.28021	292.00827	961.18811	585.62256	282.96579	935.80762	584.47723	330.29980	906.92255	566.24445	277.38196	889.65576	567.74658	247.01500	842.54022	573.64777	244.45299	791.93927	569.47894	341.44583	823.04559	607.26611	294.97739	768.12311	632.22064	252.34360	813.58905	659.46552	-261.12262	1324.91541	735.38055	-279.22672	1161.75623	749.30457	-185.87286	1134.98816	654.58795	-283.60022	1076.90967	721.70001	-309.81998	975.45111	626.72870	-298.75220	915.88818	652.02423	-338.60117	884.59796	603.57843	-302.21875	860.37463	584.12085	-281.11554	813.70984	578.37463	-284.00488	764.52808	631.50195	-357.69751	786.97656	627.98926	-328.33810	727.77948	626.97986	-268.92538	725.76172	794.42206	1.56729	1111.06567	604.61157	193.26624	1048.99585	599.63885	-156.45688	1051.27344	553.39862	189.36714	684.16754	456.35223	101.74227	604.25085	488.90344	165.05174	538.27264	502.51532	52.37019	533.21802	465.40439	128.78749	320.17175	543.38177	170.48932	88.46501	526.34070	66.07661	107.74737	603.96594	122.45339	50.01297	370.94150	135.49025	46.19733	431.32193	97.25084	82.72855	662.36267	-164.01569	663.40198	681.33667	-153.51669	512.15302	697.08081	-40.81959	493.62167	776.23077	-116.19278	318.98010	981.77045	-133.60724	149.29819	923.07379	-43.61606	151.59116	1028.51917	-62.51860	135.30534	838.90588	-126.17995	41.09483	871.14453	-85.45310	100.82600																																																																																																																															
127	1.050	412.33743	2.87490	1745.34167	329.07108	23.05530	1613.11414	551.12689	-9.22403	1688.45068	436.42505	14.70262	1450.71216	658.78595	-2.26048	1563.34949	569.51886	123.51383	1484.02161	550.39545	-120.45630	1467.05249	627.87531	223.48581	1479.27930	591.17938	-226.84499	1468.14636	732.20160	89.66959	1476.29443	726.07660	-101.12870	1466.55005	764.95313	91.78020	1387.05005	672.38904	258.97055	1342.69592	739.20941	288.77878	1161.95947	733.42310	190.44060	1150.40369	640.68268	287.39603	1098.62939	695.11127	293.94833	962.77734	579.57922	286.25549	938.78186	577.74213	332.43317	907.53961	557.88794	278.31219	894.73309	560.64374	247.46405	847.54889	566.28363	242.66205	796.73932	561.13617	340.13895	823.79230	600.85895	289.72931	771.67621	620.72815	249.62421	817.07678	654.34601	-258.09918	1326.25659	729.66150	-277.88907	1163.60266	741.50092	-182.20384	1136.36780	650.32898	-280.92517	1077.73096	717.86633	-307.03674	977.69366	624.15717	-294.91397	916.79657	649.31946	-335.80054	885.03796	601.46643	-299.33694	860.99066	584.07080	-276.76788	813.65332	576.81732	-281.32968	764.54309	629.26477	-353.58865	787.42859	626.30255	-324.00882	727.62549	625.61591	-264.15613	725.90387	787.47565	3.44166	1111.99011	597.41980	195.72072	1049.95581	593.43542	-156.17351	1052.92444	548.83984	191.03644	684.66467	452.91345	102.78362	604.16583	486.43628	166.13075	537.88605	499.35852	54.50312	532.18372	464.24075	129.92026	319.92148	543.37189	170.67039	87.74858	526.11981	65.86925	107.83916	603.89655	122.57673	50.02430	370.57932	136.58807	45.72693	431.47058	97.22971	82.53626	651.50220	-164.00146	663.51569	669.74261	-153.54318	512.31586	684.80078	-39.93172	494.13745	767.62421	-115.82058	320.12091	976.24847	-133.74527	154.58859	917.56201	-43.13791	155.78383	1023.00525	-62.16932	142.87903	838.76105	-126.03744	41.08578	866.06891	-85.83244	102.58579																																																																																																																															
128	1.058	406.20349	4.99121	1747.13892	322.55014	24.90649	1614.71863	545.63342	-8.04014	1689.32166	429.01541	14.89283	1452.23926	652.67731	-1.96468	1564.62805	562.13696	125.00150	1485.17456	544.11475	-118.63338	1468.90393	621.13275	226.94296	1480.60120	586.93842	-225.88374	1469.37683	725.54797	92.47876	1478.40967	719.72894	-98.41855	1468.03174	757.17474	97.26324	1387.91931	664.11517	260.92715	1343.73230	732.21619	290.89038	1162.30835	726.36243	193.91068	1152.30835	634.52887	292.00809	1100.36389	686.60596	297.30872	963.77924	572.03461	290.36429	939.95599	568.64618	335.10226	909.12457	551.46582	282.03674	896.18811	551.76990	246.23074	852.31842	560.63934	238.22818	801.89020	554.18921	339.58408	824.18823	590.86865	286.87552	774.78693	618.38391	246.80119	819.93939	649.10413	-256.94531	1327.62341	725.07916	-273.74078	1165.18372	735.29614	-179.42337	1137.92896	646.37866	-278.10156	1078.37256	713.82648	-304.57181	978.75580	619.77875	-292.27151	917.27777	646.00366	-332.80896	885.63708	598.13831	-295.72818	861.50763	581.33148	-273.32581	813.68732	575.25854	-277.46677	764.85364	627.49048	-350.08154	787.39301	626.34760	-320.04382	728.12189	624.08899	-261.67032	726.48260	781.41345	6.76987	1113.20056	591.18738	196.28006	1050.74451	587.65405	-153.02937	1054.20740	544.54962	192.26991	685.48627	449.04922	105.02462	603.50543	483.99536	167.90350	537.42743	496.63129	55.65862	532.71942	461.96783	130.42924	319.51205	543.02209	170.75354	87.62347	525.51715	66.77857	107.90048	603.89850	122.67404	49.94577	370.50626	136.71432	45.40024	431.49304	97.59160	82.27908	641.48621	-162.89233	665.64996	657.89758	-154.08186	512.76434	671.55347	-41.16917	493.37961	757.51477	-116.76035	321.99338	969.73279	-134.16273	161.40820	910.23297	-44.58746	159.79311	1016.95978	-62.61176	150.69643	838.45367	-125.55684	41.04760	861.85577	-86.49535	104.32491																																																																																																																															
129	1.067	400.36755	6.55820	1747.91992	315.93777	26.33869	1615.48755	539.24957	-6.00202	1690.87268	423.32770	16.05691	1453.44556	645.20898	-0.52554	1565.32288	555.53259	126.31995	1486.54443	538.02130	-117.13674	1469.41040	613.27118	227.55341	1482.16199	580.51404	-222.65768	1470.52747	718.20972	95.83010	1479.47314	713.46771	-95.64809	1469.39392	750.35791	99.17159	1389.79773	657.39594	262.60547	1344.86768	724.78424	293.03076	1164.45813	720.42798	196.12299	1152.63782	627.07642	295.42740	1102.55322	680.04742	300.28387	964.60199	563.61719	293.34363	942.45313	561.67584	337.59659	909.31299	543.47845	282.65820	899.37970	543.84131	248.37134	856.58942	550.10455	238.23149	806.77600	545.80701	339.89478	824.92963	583.33899	282.55878	777.87213	605.02319	244.62904	824.15619	643.50482	-254.53711	1329.06128	720.03418	-272.10239	1166.31982	732.71692	-176.89108	1140.00623	641.10724	-276.61664	1080.15771	710.70343	-300.35922	980.29291	616.37793	-289.58267	918.41962	643.20685	-330.06808	887.58405	595.72864	-292.75409	861.25641	578.82880	-270.18878	814.15521	574.27161	-272.63452	765.22675	626.05121	-345.47162	787.69611	625.41992	-316.05484	727.93829	627.26978	-256.89734	727.40021	775.17010	7.81961	1114.24084	583.96655	198.40991	1051.90881	581.89246	-152.78072	1055.85046	540.72388	193.91887	685.46912	445.43271	106.61154	603.21100	480.56180	168.87309	536.63031	492.62335	56.76059	532.20319	460.41238	131.66940	319.08618	542.93408	170.90515	87.25002	525.57538	67.20148	107.72507	603.96838	122.70683	49.92920	370.39099	136.02911	45.43210	431.12369	97.72633	82.03187	630.48138	-161.55750	667.27814	645.82355	-153.50549	513.40167	657.90051	-41.15087	493.00735	747.26697	-119.34695	323.55475	963.13947	-133.99927	167.89066	903.23236	-45.17746	164.12611	1009.28882	-62.42216	158.61948	837.20673	-124.76148	41.76979	856.81519	-87.29845	105.19241																																																																																																																															
